HIERARCHY
ROOT hip
{
	OFFSET 0.000000 0.000000 0.000000 
	CHANNELS 6 Xposition Yposition Zposition Xrotation Zrotation Yrotation
	JOINT abdomen
	{
		OFFSET 0.000000 3.402643 0.000000 
		CHANNELS 3 Xrotation Zrotation Yrotation
		JOINT chest
		{
			OFFSET 0.000000 8.438565 -0.680529 
			CHANNELS 3 Xrotation Zrotation Yrotation
			JOINT neck
			{
				OFFSET 0.000000 10.207942 -0.272212 
				CHANNELS 3 Xrotation Zrotation Yrotation
				JOINT head
				{
					OFFSET 0.000000 3.130431 0.000000 
					CHANNELS 3 Xrotation Zrotation Yrotation
					End Site
					{
						OFFSET 0.000000 3.130435 0.000000 
					}
				}
			}
			JOINT lCollar
			{
				OFFSET 3.470700 6.669187 -0.816635 
				CHANNELS 3 Yrotation Zrotation Xrotation
				JOINT lShldr
				{
					OFFSET 3.198488 0.000000 0.000000 
					CHANNELS 3 Zrotation Yrotation Xrotation
					JOINT lForeArm
					{
						OFFSET 10.139888 0.000000 0.000000 
						CHANNELS 3 Yrotation Zrotation Xrotation
						JOINT lHand
						{
							OFFSET 8.370511 0.000000 0.000000 
							CHANNELS 3 Zrotation Yrotation Xrotation
							End Site
							{
								OFFSET 4.083176 0.000000 0.000000 
							}
						}
					}
				}
			}
			JOINT rCollar
			{
				OFFSET -3.470700 6.669187 -0.816635 
				CHANNELS 3 Yrotation Zrotation Xrotation
				JOINT rShldr
				{
					OFFSET -3.198488 0.000000 0.000000 
					CHANNELS 3 Zrotation Yrotation Xrotation
					JOINT rForeArm
					{
						OFFSET -10.139888 0.000000 0.000000 
						CHANNELS 3 Yrotation Zrotation Xrotation
						JOINT rHand
						{
							OFFSET -8.370511 0.000000 0.000000 
							CHANNELS 3 Zrotation Yrotation Xrotation
							End Site
							{
								OFFSET -4.083176 0.000000 0.000000 
							}
						}
					}
				}
			}
		}
	}
	JOINT lThigh
	{
		OFFSET 5.308129 -1.633274 1.361059 
		CHANNELS 3 Xrotation Zrotation Yrotation
		JOINT lShin
		{
			OFFSET -2.041588 -20.007561 0.000000 
			CHANNELS 3 Xrotation Zrotation Yrotation
			JOINT lFoot
			{
				OFFSET 0.000000 -19.190928 -1.224953 
				CHANNELS 3 Xrotation Yrotation Zrotation
				End Site
				{
					OFFSET 0.000000 -2.449906 4.627600 
				}
			}
		}
	}
	JOINT rThigh
	{
		OFFSET -5.308129 -1.633274 1.361059 
		CHANNELS 3 Xrotation Zrotation Yrotation
		JOINT rShin
		{
			OFFSET 2.041588 -20.007561 0.000000 
			CHANNELS 3 Xrotation Zrotation Yrotation
			JOINT rFoot
			{
				OFFSET 0.000000 -19.190928 -1.224953 
				CHANNELS 3 Xrotation Yrotation Zrotation
				End Site
				{
					OFFSET 0.000000 -2.449906 4.627600 
				}
			}
		}
	}
}
MOTION
Frames: 14
Frame Time: 0.016667
3.135247 21.121717 -19.562742 -14.966097 -20.026613 -6.520537 60.832607 22.651890 14.856783 5.728747 0.468736 0.478531 -8.624337 3.094189 -0.438863 -4.927420 -7.485813 23.976042 -18.065180 -0.428620 -0.029188 -50.257763 -29.166363 3.538864 -103.448669 -5.000000 -2.363787 -35.098682 19.971840 20.416451 18.781210 6.913949 -0.367050 67.332420 14.415541 6.945097 48.085876 5.000000 5.986832 15.913031 -15.759111 8.317590 -100.353851 20.254423 -23.031273 132.744186 3.014972 -3.098320 -23.597559 8.058006 4.109656 -18.463787 -14.409211 -20.268124 144.986786 -8.407584 3.568689 -75.076027 -13.012056 -7.033359 
3.174310 21.117041 -19.517954 -14.918894 -20.049917 -6.678125 60.833763 22.590679 14.846468 5.777096 0.468732 0.390642 -8.615172 3.171433 -0.450548 -4.905665 -7.484520 24.153849 -18.016289 -0.451154 -0.020909 -50.238243 -29.176325 3.511010 -103.497635 -5.000000 -2.356102 -34.953285 19.929506 20.384029 18.781530 6.962712 -0.369576 67.270004 14.507265 7.012690 48.111107 5.000000 5.938573 16.056536 -15.810802 8.186842 -100.315132 20.293695 -23.066483 132.881042 3.007436 -3.105287 -23.980101 8.019503 4.234500 -18.466051 -14.461688 -20.205761 144.982391 -8.480439 3.606565 -74.984512 -13.139085 -7.137909 
3.218278 21.112246 -19.471975 -14.889156 -20.134043 -6.764863 60.883617 22.626377 14.827973 5.767416 0.458966 0.410172 -8.536812 3.211518 -0.446750 -4.896377 -7.479958 24.232447 -18.084656 -0.470659 -0.021913 -50.225872 -29.126696 3.482083 -103.551849 -5.000000 -2.343109 -35.061996 19.822821 20.459295 18.770695 6.975608 -0.360905 67.257713 14.490431 6.964915 48.184513 5.000000 5.897098 16.099094 -15.891723 8.090835 -100.270996 20.293009 -23.026798 133.076447 3.024866 -3.089786 -24.461258 8.290627 4.309042 -18.426296 -14.489835 -20.244631 144.988861 -8.559896 3.624044 -74.910423 -13.221153 -7.274711 
3.262252 21.107450 -19.425999 -14.844541 -20.227392 -6.860770 60.942486 22.650019 14.813301 5.767338 0.458966 0.419938 -8.458914 3.240484 -0.451132 -4.895566 -7.475953 24.301380 -18.143257 -0.480412 -0.022416 -50.217472 -29.069548 3.458380 -103.606613 -5.000000 -2.336996 -35.170746 19.716379 20.534887 18.770756 6.985361 -0.361410 67.254997 14.468798 6.908083 48.256958 5.000000 5.863535 16.154667 -15.971176 7.980355 -100.193741 20.274446 -22.949072 133.203354 3.036589 -3.081955 -24.960239 8.606950 4.395609 -18.369064 -14.511645 -20.256897 144.975327 -8.641653 3.669608 -74.916168 -13.227911 -7.391753 
3.315252 21.098274 -19.375139 -14.820631 -20.214840 -6.934986 60.935791 22.615257 14.697010 5.806401 0.458966 0.419938 -8.439612 3.269450 -0.455513 -4.929618 -7.490882 24.350981 -18.182329 -0.509670 -0.023923 -50.190777 -29.039297 3.430719 -103.690155 -5.000000 -2.323553 -35.194706 19.626963 20.616695 18.762251 7.001724 -0.371597 67.236839 14.487931 6.846272 48.347057 5.000000 5.834814 16.173500 -16.014252 7.941288 -100.073837 20.273695 -22.752886 133.368576 3.063867 -3.080159 -25.395700 8.833734 4.443194 -18.357010 -14.664042 -20.272390 144.981476 -8.718971 3.710633 -74.956871 -13.223586 -7.631927 
3.377277 21.084715 -19.319403 -14.804508 -20.096054 -6.993293 60.882557 22.495739 14.493509 5.884261 0.488261 0.410175 -8.469063 3.288761 -0.458435 -4.988791 -7.524733 24.382519 -18.182344 -0.538927 -0.025430 -50.131058 -29.049706 3.397066 -103.813873 -5.000000 -2.317696 -35.136810 19.545792 20.717781 18.742785 7.011480 -0.372104 67.223679 14.549093 6.786074 48.465744 5.000000 5.815061 16.180872 -16.018322 7.950300 -99.879456 20.263918 -22.404385 133.502899 3.085823 -3.124567 -25.814028 9.160580 4.489229 -18.384657 -14.973701 -20.241787 144.987274 -8.802691 3.771499 -75.072144 -13.143507 -7.964169 
3.439307 21.071154 -19.263664 -14.787359 -19.986967 -7.048279 60.829460 22.393324 14.281974 5.952444 0.507792 0.400411 -8.498437 3.298416 -0.459895 -5.056475 -7.559148 24.404408 -18.182358 -0.568185 -0.026938 -50.086456 -29.052015 3.373356 -103.937080 -5.000000 -2.309016 -35.088856 19.469339 20.805000 18.722240 7.034124 -0.363936 67.210060 14.606640 6.719249 48.583496 5.000000 5.801704 16.190933 -16.019672 7.947607 -99.682716 20.244244 -22.026302 133.647797 3.131913 -3.125060 -26.241442 9.495010 4.533153 -18.406698 -15.280610 -20.252491 144.984924 -8.885674 3.799484 -75.215256 -13.037596 -8.325039 
3.545910 21.075506 -19.195929 -14.908923 -19.921988 -6.974076 61.004108 22.435944 14.237470 5.943186 0.419902 0.351577 -8.419776 3.230828 -0.449671 -5.120509 -7.499202 24.361917 -18.309361 -0.655959 -0.031460 -50.014297 -29.043739 3.384839 -104.055763 -5.000000 -2.280429 -35.111198 19.460638 20.887114 18.869543 6.982203 -0.370582 67.212364 14.476284 6.371251 48.814575 5.000000 5.824102 16.213009 -15.969370 8.118295 -99.277596 20.088541 -21.626350 133.804016 3.151333 -3.110366 -26.938740 9.669036 4.799567 -18.131153 -15.667238 -20.404322 144.986115 -9.120247 3.898790 -75.084442 -12.979301 -8.482793 
3.652525 21.079861 -19.128187 -15.017010 -19.856550 -6.909050 61.160561 22.476248 14.200629 5.934205 0.322249 0.322275 -8.350817 3.153585 -0.437986 -5.183363 -7.439782 24.308516 -18.426600 -0.733980 -0.035479 -49.938190 -29.043016 3.386369 -104.174477 -5.000000 -2.251002 -35.136433 19.446404 20.961702 19.025415 6.923664 -0.367542 67.215576 14.346066 6.023210 49.044811 5.000000 5.858008 16.235506 -15.919340 8.291797 -98.864532 19.941628 -21.244871 133.960999 3.163964 -3.082648 -27.642317 9.789517 5.057354 -17.878122 -16.088490 -20.554619 144.989166 -9.365067 4.015861 -74.935059 -12.874189 -8.576246 
3.773238 21.093359 -19.053589 -15.119544 -19.750000 -6.643131 61.231316 22.612387 14.096496 5.915699 0.214832 0.312504 -8.281284 3.068148 -0.415198 -5.200383 -7.415489 24.110117 -18.582890 -0.792495 -0.038493 -49.938534 -29.144482 3.542066 -104.171776 -5.000000 -2.184942 -35.234821 19.280251 20.866352 19.132206 6.826122 -0.362484 67.262894 14.119369 5.481999 49.343925 5.000000 5.930556 16.253628 -15.669580 8.462205 -98.408142 19.561369 -20.700388 134.070007 3.156537 -3.050115 -28.274332 10.076578 5.346450 -17.535273 -16.603388 -20.930246 144.981369 -9.587725 4.144754 -74.935402 -12.810397 -8.943710 
3.908053 21.115995 -18.972132 -15.180751 -19.610622 -6.192103 61.191933 22.877344 13.966048 5.897715 0.068356 0.322266 -8.222138 2.990905 -0.403001 -5.156469 -7.417746 23.755766 -18.787994 -0.831506 -0.040503 -50.014999 -29.363710 3.828744 -104.046921 -5.000000 -2.077990 -35.411057 18.973143 20.588379 19.199642 6.679824 -0.354899 67.379662 13.778460 4.758433 49.702869 5.000000 6.038095 16.290775 -15.220011 8.615131 -97.921982 18.994720 -20.039843 134.160782 3.124681 -3.005560 -28.876919 10.433221 5.707888 -17.107521 -17.261284 -21.531773 144.974045 -9.812897 4.288346 -75.048073 -12.657344 -9.421429 
4.042871 21.138638 -18.890671 -15.263519 -19.460497 -5.731866 61.148968 23.119467 13.827969 5.879617 -0.068356 0.341786 -8.163008 2.913660 -0.391325 -5.108742 -7.410663 23.400133 -18.993093 -0.860764 -0.042010 -50.097137 -29.580433 4.129120 -103.923241 -5.000000 -1.974778 -35.581898 18.670483 20.322104 19.266035 6.536749 -0.337042 67.492020 13.435981 4.046038 50.069275 5.000000 6.148591 16.319197 -14.768987 8.770638 -97.439529 18.398382 -19.366011 134.271011 3.099091 -2.958459 -29.473198 10.826895 6.046484 -16.678896 -17.898304 -22.159632 144.984314 -10.000000 4.410848 -75.168503 -12.582538 -9.956367 
4.190126 21.242989 -18.773008 -15.342787 -19.491505 -4.641867 60.861835 23.779453 13.765887 5.676136 -0.185533 0.165988 -7.918656 3.032451 -0.389553 -4.548289 -7.226027 22.984949 -19.588800 -0.701448 -0.043172 -50.643711 -29.605366 4.607436 -103.178474 -5.000000 -1.797636 -35.732460 17.835266 19.859526 19.079010 6.283185 -0.323932 67.794060 12.708767 2.933599 50.593555 5.000000 6.526143 15.681439 -12.357383 8.743563 -96.871231 17.265718 -18.690962 134.193542 3.072933 -2.965464 -29.776579 11.192436 6.664353 -15.781562 -18.359850 -23.456991 144.996628 -9.999351 4.610645 -75.368942 -12.549364 -10.832270 
4.337387 21.347368 -18.655327 -15.435261 -19.525976 -3.545754 60.576061 24.426952 13.715140 5.473135 -0.302703 -0.019571 -7.683494 3.152704 -0.378143 -3.991892 -7.039291 22.580917 -20.184397 -0.555063 -0.035601 -51.190769 -29.624807 5.086330 -102.425323 -5.000000 -1.626616 -35.854614 17.007795 19.409267 18.892038 6.029621 -0.310814 68.106964 11.978119 1.832265 51.121796 5.000000 6.903251 15.044077 -9.955744 8.696362 -96.299446 16.143194 -18.024055 134.117249 3.034168 -2.953970 -30.104881 11.475743 7.252171 -14.861565 -18.801146 -24.780941 144.989700 -9.999937 4.807399 -75.566643 -12.466809 -11.662166 
